<mxfile host="Electron" modified="2024-10-03T00:51:43.786Z" agent="Mozilla/5.0 (Windows NT 10.0; Win64; x64) AppleWebKit/537.36 (KHTML, like Gecko) draw.io/24.6.1 Chrome/124.0.6367.207 Electron/30.0.6 Safari/537.36" etag="eJRfJDjc1Cdq3KSNZ7oM" version="24.6.1" type="device">
  <diagram name="PÃ¡gina-1" id="TIW8J0KJoMiEKmJSmJ6i">
    <mxGraphModel dx="2755" dy="737" grid="1" gridSize="10" guides="1" tooltips="1" connect="1" arrows="1" fold="1" page="1" pageScale="1" pageWidth="827" pageHeight="1169" math="0" shadow="0">
      <root>
        <mxCell id="0" />
        <mxCell id="1" parent="0" />
        <mxCell id="KLkQHYI_NmMJT6qgf1a6-4" value="" style="group" parent="1" vertex="1" connectable="0">
          <mxGeometry x="80" y="453" width="120" height="60" as="geometry" />
        </mxCell>
        <mxCell id="KLkQHYI_NmMJT6qgf1a6-5" value="" style="rounded=0;whiteSpace=wrap;html=1;" parent="KLkQHYI_NmMJT6qgf1a6-4" vertex="1">
          <mxGeometry width="120" height="60" as="geometry" />
        </mxCell>
        <mxCell id="KLkQHYI_NmMJT6qgf1a6-6" value="&lt;span style=&quot;font-size: 18px;&quot;&gt;user&lt;/span&gt;" style="text;html=1;align=center;verticalAlign=middle;whiteSpace=wrap;rounded=0;" parent="KLkQHYI_NmMJT6qgf1a6-4" vertex="1">
          <mxGeometry x="30" y="15" width="60" height="30" as="geometry" />
        </mxCell>
        <mxCell id="KLkQHYI_NmMJT6qgf1a6-7" value="" style="endArrow=none;html=1;rounded=0;" parent="1" edge="1">
          <mxGeometry width="50" height="50" relative="1" as="geometry">
            <mxPoint x="90" y="583" as="sourcePoint" />
            <mxPoint x="89.75999999999999" y="523" as="targetPoint" />
          </mxGeometry>
        </mxCell>
        <mxCell id="KLkQHYI_NmMJT6qgf1a6-8" value="&lt;font style=&quot;font-size: 12px;&quot;&gt;id&lt;/font&gt;" style="text;html=1;align=center;verticalAlign=middle;whiteSpace=wrap;rounded=0;" parent="1" vertex="1">
          <mxGeometry x="100" y="533" width="40" height="20" as="geometry" />
        </mxCell>
        <mxCell id="KLkQHYI_NmMJT6qgf1a6-9" value="&lt;font style=&quot;font-size: 12px;&quot;&gt;name&lt;/font&gt;" style="text;html=1;align=center;verticalAlign=middle;whiteSpace=wrap;rounded=0;" parent="1" vertex="1">
          <mxGeometry x="110" y="553" width="40" height="20" as="geometry" />
        </mxCell>
        <mxCell id="KLkQHYI_NmMJT6qgf1a6-10" value="" style="group" parent="1" vertex="1" connectable="0">
          <mxGeometry x="320" y="130" width="120" height="60" as="geometry" />
        </mxCell>
        <mxCell id="KLkQHYI_NmMJT6qgf1a6-11" value="" style="rounded=0;whiteSpace=wrap;html=1;" parent="KLkQHYI_NmMJT6qgf1a6-10" vertex="1">
          <mxGeometry width="120" height="60" as="geometry" />
        </mxCell>
        <mxCell id="KLkQHYI_NmMJT6qgf1a6-12" value="&lt;div&gt;&lt;span style=&quot;font-size: 18px;&quot;&gt;WORKING&lt;/span&gt;&lt;/div&gt;&lt;font style=&quot;font-size: 18px;&quot;&gt;SYSTEM&lt;/font&gt;" style="text;html=1;align=center;verticalAlign=middle;whiteSpace=wrap;rounded=0;" parent="KLkQHYI_NmMJT6qgf1a6-10" vertex="1">
          <mxGeometry x="30" y="15" width="60" height="30" as="geometry" />
        </mxCell>
        <mxCell id="KLkQHYI_NmMJT6qgf1a6-14" value="" style="group" parent="1" vertex="1" connectable="0">
          <mxGeometry x="570" y="450" width="120" height="60" as="geometry" />
        </mxCell>
        <mxCell id="KLkQHYI_NmMJT6qgf1a6-15" value="" style="rounded=0;whiteSpace=wrap;html=1;" parent="KLkQHYI_NmMJT6qgf1a6-14" vertex="1">
          <mxGeometry width="120" height="60" as="geometry" />
        </mxCell>
        <mxCell id="KLkQHYI_NmMJT6qgf1a6-16" value="&lt;span style=&quot;font-size: 18px;&quot;&gt;auction&lt;/span&gt;" style="text;html=1;align=center;verticalAlign=middle;whiteSpace=wrap;rounded=0;" parent="KLkQHYI_NmMJT6qgf1a6-14" vertex="1">
          <mxGeometry x="30" y="15" width="60" height="30" as="geometry" />
        </mxCell>
        <mxCell id="KLkQHYI_NmMJT6qgf1a6-17" value="" style="endArrow=none;html=1;rounded=0;" parent="1" edge="1">
          <mxGeometry width="50" height="50" relative="1" as="geometry">
            <mxPoint x="580" y="580" as="sourcePoint" />
            <mxPoint x="579.76" y="520" as="targetPoint" />
          </mxGeometry>
        </mxCell>
        <mxCell id="KLkQHYI_NmMJT6qgf1a6-18" value="&lt;font style=&quot;font-size: 12px;&quot;&gt;id&lt;/font&gt;" style="text;html=1;align=center;verticalAlign=middle;whiteSpace=wrap;rounded=0;" parent="1" vertex="1">
          <mxGeometry x="590" y="520" width="40" height="20" as="geometry" />
        </mxCell>
        <mxCell id="KLkQHYI_NmMJT6qgf1a6-19" value="&lt;font style=&quot;font-size: 12px;&quot;&gt;name&lt;/font&gt;" style="text;html=1;align=center;verticalAlign=middle;whiteSpace=wrap;rounded=0;" parent="1" vertex="1">
          <mxGeometry x="600" y="540" width="40" height="20" as="geometry" />
        </mxCell>
        <mxCell id="KLkQHYI_NmMJT6qgf1a6-20" value="&lt;font style=&quot;font-size: 12px;&quot;&gt;startingPrice&lt;/font&gt;" style="text;html=1;align=center;verticalAlign=middle;whiteSpace=wrap;rounded=0;" parent="1" vertex="1">
          <mxGeometry x="593" y="560" width="90" height="20" as="geometry" />
        </mxCell>
        <mxCell id="KLkQHYI_NmMJT6qgf1a6-21" value="" style="endArrow=none;html=1;rounded=0;" parent="1" edge="1">
          <mxGeometry width="50" height="50" relative="1" as="geometry">
            <mxPoint x="-20" y="430" as="sourcePoint" />
            <mxPoint x="720" y="430" as="targetPoint" />
          </mxGeometry>
        </mxCell>
        <mxCell id="KLkQHYI_NmMJT6qgf1a6-22" value="&lt;font style=&quot;font-size: 18px;&quot;&gt;UNIT&lt;/font&gt;" style="text;html=1;align=center;verticalAlign=middle;whiteSpace=wrap;rounded=0;" parent="1" vertex="1">
          <mxGeometry x="-20" y="400" width="60" height="30" as="geometry" />
        </mxCell>
        <mxCell id="KLkQHYI_NmMJT6qgf1a6-23" value="" style="group" parent="1" vertex="1" connectable="0">
          <mxGeometry x="320" y="290" width="120" height="60" as="geometry" />
        </mxCell>
        <mxCell id="KLkQHYI_NmMJT6qgf1a6-24" value="" style="rounded=0;whiteSpace=wrap;html=1;" parent="KLkQHYI_NmMJT6qgf1a6-23" vertex="1">
          <mxGeometry width="120" height="60" as="geometry" />
        </mxCell>
        <mxCell id="KLkQHYI_NmMJT6qgf1a6-25" value="&lt;span style=&quot;font-size: 18px;&quot;&gt;bids&lt;/span&gt;" style="text;html=1;align=center;verticalAlign=middle;whiteSpace=wrap;rounded=0;" parent="KLkQHYI_NmMJT6qgf1a6-23" vertex="1">
          <mxGeometry x="30" y="15" width="60" height="30" as="geometry" />
        </mxCell>
        <mxCell id="KLkQHYI_NmMJT6qgf1a6-26" value="" style="endArrow=none;html=1;rounded=0;" parent="1" edge="1">
          <mxGeometry width="50" height="50" relative="1" as="geometry">
            <mxPoint x="330" y="420" as="sourcePoint" />
            <mxPoint x="329.76" y="360" as="targetPoint" />
          </mxGeometry>
        </mxCell>
        <mxCell id="KLkQHYI_NmMJT6qgf1a6-27" value="&lt;font style=&quot;font-size: 12px;&quot;&gt;auctionId&lt;/font&gt;" style="text;html=1;align=center;verticalAlign=middle;whiteSpace=wrap;rounded=0;" parent="1" vertex="1">
          <mxGeometry x="358" y="360" width="40" height="20" as="geometry" />
        </mxCell>
        <mxCell id="KLkQHYI_NmMJT6qgf1a6-28" value="&lt;font style=&quot;font-size: 12px;&quot;&gt;userId&lt;/font&gt;" style="text;html=1;align=center;verticalAlign=middle;whiteSpace=wrap;rounded=0;" parent="1" vertex="1">
          <mxGeometry x="350" y="380" width="40" height="20" as="geometry" />
        </mxCell>
        <mxCell id="KLkQHYI_NmMJT6qgf1a6-29" value="&lt;font style=&quot;font-size: 12px;&quot;&gt;amount&lt;/font&gt;" style="text;html=1;align=center;verticalAlign=middle;whiteSpace=wrap;rounded=0;" parent="1" vertex="1">
          <mxGeometry x="329" y="400" width="90" height="20" as="geometry" />
        </mxCell>
        <mxCell id="KLkQHYI_NmMJT6qgf1a6-30" value="" style="endArrow=classic;html=1;rounded=0;exitX=0.5;exitY=0;exitDx=0;exitDy=0;entryX=0;entryY=0.5;entryDx=0;entryDy=0;" parent="1" source="KLkQHYI_NmMJT6qgf1a6-5" target="KLkQHYI_NmMJT6qgf1a6-24" edge="1">
          <mxGeometry width="50" height="50" relative="1" as="geometry">
            <mxPoint x="470" y="380" as="sourcePoint" />
            <mxPoint x="520" y="330" as="targetPoint" />
            <Array as="points">
              <mxPoint x="140" y="320" />
            </Array>
          </mxGeometry>
        </mxCell>
        <mxCell id="KLkQHYI_NmMJT6qgf1a6-31" value="" style="endArrow=classic;html=1;rounded=0;exitX=0.5;exitY=0;exitDx=0;exitDy=0;entryX=1;entryY=0.5;entryDx=0;entryDy=0;" parent="1" source="KLkQHYI_NmMJT6qgf1a6-15" target="KLkQHYI_NmMJT6qgf1a6-24" edge="1">
          <mxGeometry width="50" height="50" relative="1" as="geometry">
            <mxPoint x="550" y="370" as="sourcePoint" />
            <mxPoint x="600" y="320" as="targetPoint" />
            <Array as="points">
              <mxPoint x="630" y="320" />
            </Array>
          </mxGeometry>
        </mxCell>
        <mxCell id="KLkQHYI_NmMJT6qgf1a6-32" value="" style="endArrow=classic;html=1;rounded=0;exitX=0.5;exitY=0;exitDx=0;exitDy=0;entryX=0.5;entryY=1;entryDx=0;entryDy=0;" parent="1" source="KLkQHYI_NmMJT6qgf1a6-24" target="KLkQHYI_NmMJT6qgf1a6-11" edge="1">
          <mxGeometry width="50" height="50" relative="1" as="geometry">
            <mxPoint x="230" y="270" as="sourcePoint" />
            <mxPoint x="280" y="220" as="targetPoint" />
          </mxGeometry>
        </mxCell>
        <mxCell id="KLkQHYI_NmMJT6qgf1a6-34" value="" style="endArrow=none;html=1;rounded=0;" parent="1" edge="1">
          <mxGeometry width="50" height="50" relative="1" as="geometry">
            <mxPoint x="-20" y="260" as="sourcePoint" />
            <mxPoint x="720" y="260" as="targetPoint" />
          </mxGeometry>
        </mxCell>
        <mxCell id="KLkQHYI_NmMJT6qgf1a6-35" value="&lt;font style=&quot;font-size: 18px;&quot;&gt;INTEGRATION&lt;/font&gt;" style="text;html=1;align=center;verticalAlign=middle;whiteSpace=wrap;rounded=0;" parent="1" vertex="1">
          <mxGeometry x="19" y="230" width="60" height="30" as="geometry" />
        </mxCell>
        <mxCell id="KLkQHYI_NmMJT6qgf1a6-36" value="&lt;font style=&quot;font-size: 24px;&quot;&gt;&lt;b&gt;Projeto do sistema de apostas do Joe&lt;/b&gt;&lt;/font&gt;&lt;div style=&quot;text-align: right;&quot;&gt;&lt;font style=&quot;font-size: 24px;&quot;&gt;&amp;nbsp;Por Zac Milioli&lt;/font&gt;&lt;/div&gt;" style="text;html=1;align=center;verticalAlign=middle;whiteSpace=wrap;rounded=0;" parent="1" vertex="1">
          <mxGeometry x="-59" y="24" width="510" height="30" as="geometry" />
        </mxCell>
        <mxCell id="MBctaNZgSpuKjkSVbJMa-7" value="" style="shape=curlyBracket;whiteSpace=wrap;html=1;rounded=1;flipH=1;labelPosition=right;verticalLabelPosition=middle;align=left;verticalAlign=middle;" vertex="1" parent="1">
          <mxGeometry x="407" y="365" width="20" height="30" as="geometry" />
        </mxCell>
        <mxCell id="MBctaNZgSpuKjkSVbJMa-8" value="Mock for unit" style="text;html=1;align=center;verticalAlign=middle;whiteSpace=wrap;rounded=0;" vertex="1" parent="1">
          <mxGeometry x="408" y="364" width="113" height="30" as="geometry" />
        </mxCell>
      </root>
    </mxGraphModel>
  </diagram>
</mxfile>
